<?xml version="1.0" encoding="UTF-8" standalone="no"?><!DOCTYPE svg PUBLIC "-//W3C//DTD SVG 1.1//EN" "http://www.w3.org/Graphics/SVG/1.1/DTD/svg11.dtd"><svg width="100%" height="100%" viewBox="0 0 1600 400" version="1.1" xmlns="http://www.w3.org/2000/svg" xmlns:xlink="http://www.w3.org/1999/xlink" xml:space="preserve" xmlns:serif="http://www.serif.com/" style="fill-rule:evenodd;clip-rule:evenodd;stroke-linejoin:round;stroke-miterlimit:2;"><rect x="436.552" y="85.326" width="11.955" height="81.667" style="fill-rule:nonzero;"/><path d="M473.612,166.993l-0,-81.667l9.803,0l37.537,61.717l-5.26,-0l37.06,-61.717l9.803,0l0.119,81.667l-11.476,-0l-0.12,-64.05l2.75,-0l-32.995,54.133l-5.499,0l-33.234,-54.133l2.988,-0l0,64.05l-11.476,-0Z" style="fill-rule:nonzero;"/><path d="M587.779,166.993l-0,-81.667l35.266,0c8.926,0 16.796,1.711 23.611,5.134c6.814,3.422 12.114,8.205 15.899,14.35c3.786,6.144 5.679,13.261 5.679,21.35c-0,8.088 -1.893,15.205 -5.679,21.35c-3.785,6.144 -9.085,10.927 -15.899,14.35c-6.815,3.422 -14.685,5.133 -23.611,5.133l-35.266,-0Zm11.955,-10.15l22.594,-0c6.934,-0 12.931,-1.283 17.992,-3.85c5.06,-2.567 8.986,-6.164 11.775,-10.792c2.789,-4.628 4.184,-9.975 4.184,-16.041c0,-6.145 -1.395,-11.512 -4.184,-16.1c-2.789,-4.589 -6.715,-8.167 -11.775,-10.734c-5.061,-2.566 -11.058,-3.85 -17.992,-3.85l-22.594,0l-0,61.367Z" style="fill-rule:nonzero;"/><path d="M697.403,120.56l43.037,-0l-0,9.916l-43.037,0l0,-9.916Zm1.076,36.283l48.775,-0l0,10.15l-60.73,-0l0,-81.667l59.056,0l0,10.15l-47.101,0l0,61.367Z" style="fill-rule:nonzero;"/><path d="M798.779,166.993l-0,-81.667l11.954,0l0,71.517l45.309,-0l-0,10.15l-57.263,-0Z" style="fill-rule:nonzero;"/><path d="M889.276,167.693c-6.376,-0 -11.318,-1.672 -14.824,-5.017c-3.507,-3.344 -5.26,-8.128 -5.26,-14.35l-0,-56.7l11.476,0l0,56.234c0,3.344 0.857,5.911 2.57,7.7c1.714,1.788 4.165,2.683 7.353,2.683c3.586,-0 6.575,-0.972 8.966,-2.917l3.586,8.05c-1.753,1.478 -3.845,2.567 -6.276,3.267c-2.431,0.7 -4.961,1.05 -7.591,1.05Zm-30.843,-53.317l-0,-9.216l40.406,-0l0,9.216l-40.406,0Z" style="fill-rule:nonzero;"/><path d="M941.039,167.693c-6.136,-0 -11.616,-1.322 -16.437,-3.967c-4.822,-2.644 -8.628,-6.339 -11.417,-11.083c-2.79,-4.745 -4.184,-10.267 -4.184,-16.567c-0,-6.3 1.394,-11.803 4.184,-16.508c2.789,-4.706 6.595,-8.381 11.417,-11.025c4.821,-2.645 10.301,-3.967 16.437,-3.967c5.34,0 10.162,1.167 14.465,3.5c4.304,2.334 7.751,5.834 10.341,10.5c2.59,4.667 3.885,10.5 3.885,17.5c0,7 -1.255,12.834 -3.765,17.5c-2.511,4.667 -5.918,8.186 -10.221,10.559c-4.304,2.372 -9.206,3.558 -14.705,3.558Zm0.957,-9.8c3.985,-0 7.591,-0.895 10.819,-2.683c3.227,-1.789 5.778,-4.337 7.651,-7.642c1.873,-3.306 2.809,-7.136 2.809,-11.492c-0,-4.433 -0.936,-8.264 -2.809,-11.491c-1.873,-3.228 -4.424,-5.737 -7.651,-7.525c-3.228,-1.789 -6.834,-2.684 -10.819,-2.684c-4.065,0 -7.691,0.895 -10.879,2.684c-3.188,1.788 -5.738,4.297 -7.651,7.525c-1.913,3.227 -2.869,7.058 -2.869,11.491c-0,4.356 0.956,8.186 2.869,11.492c1.913,3.305 4.463,5.853 7.651,7.642c3.188,1.788 6.814,2.683 10.879,2.683Zm21.638,9.1l-0,-16.683l0.717,-14.35l-1.196,-14.35l0,-41.184l11.477,0l-0,86.567l-10.998,-0Z" style="fill-rule:nonzero;"/><path d="M432.334,282.303l0,-46.667l18.923,0c5.055,0 9.495,1 13.321,3c3.825,2 6.797,4.756 8.914,8.267c2.118,3.511 3.177,7.533 3.177,12.067c-0,4.533 -1.059,8.555 -3.177,12.066c-2.117,3.511 -5.089,6.267 -8.914,8.267c-3.826,2 -8.266,3 -13.321,3l-18.923,0Zm3.484,-3.067l15.165,0c4.509,0 8.426,-0.866 11.75,-2.6c3.325,-1.733 5.898,-4.122 7.719,-7.166c1.822,-3.045 2.733,-6.545 2.733,-10.5c-0,-3.956 -0.911,-7.456 -2.733,-10.5c-1.821,-3.045 -4.394,-5.434 -7.719,-7.167c-3.324,-1.733 -7.241,-2.6 -11.75,-2.6l-15.165,0l0,40.533Z" style="fill-rule:nonzero;"/><path d="M487.667,282.303l0,-34.8l3.416,0l-0,34.8l-3.416,0Zm1.708,-43.267c-0.774,0 -1.435,-0.266 -1.981,-0.8c-0.547,-0.533 -0.82,-1.155 -0.82,-1.866c0,-0.756 0.273,-1.4 0.82,-1.934c0.546,-0.533 1.207,-0.8 1.981,-0.8c0.82,0 1.491,0.256 2.015,0.767c0.524,0.511 0.786,1.144 0.786,1.9c-0,0.756 -0.262,1.4 -0.786,1.933c-0.524,0.534 -1.195,0.8 -2.015,0.8Z" style="fill-rule:nonzero;"/><path d="M520.32,295.503c-3.233,0 -6.307,-0.489 -9.222,-1.467c-2.914,-0.977 -5.283,-2.333 -7.104,-4.066l1.844,-2.534c1.776,1.6 3.905,2.845 6.387,3.734c2.482,0.889 5.158,1.333 8.027,1.333c4.782,0 8.3,-1.089 10.554,-3.267c2.255,-2.177 3.382,-5.6 3.382,-10.266l-0,-9.667l0.683,-5.2l-0.547,-5.2l0,-11.4l3.279,0l0,31.067c0,5.822 -1.445,10.1 -4.337,12.833c-2.892,2.733 -7.207,4.1 -12.946,4.1Zm-0.956,-14.467c-3.37,0 -6.387,-0.722 -9.051,-2.166c-2.664,-1.445 -4.782,-3.445 -6.353,-6c-1.572,-2.556 -2.357,-5.478 -2.357,-8.767c-0,-3.333 0.785,-6.267 2.357,-8.8c1.571,-2.533 3.689,-4.511 6.353,-5.933c2.664,-1.423 5.681,-2.134 9.051,-2.134c3.234,0 6.137,0.678 8.71,2.034c2.573,1.355 4.611,3.289 6.114,5.8c1.503,2.511 2.254,5.522 2.254,9.033c0,3.467 -0.751,6.467 -2.254,9c-1.503,2.533 -3.541,4.489 -6.114,5.867c-2.573,1.377 -5.476,2.066 -8.71,2.066Zm0.273,-3c2.869,0 5.397,-0.589 7.583,-1.766c2.186,-1.178 3.905,-2.823 5.158,-4.934c1.252,-2.111 1.878,-4.522 1.878,-7.233c0,-2.756 -0.626,-5.178 -1.878,-7.267c-1.253,-2.089 -2.972,-3.711 -5.158,-4.866c-2.186,-1.156 -4.714,-1.734 -7.583,-1.734c-2.778,0 -5.271,0.578 -7.48,1.734c-2.209,1.155 -3.939,2.777 -5.192,4.866c-1.252,2.089 -1.878,4.511 -1.878,7.267c-0,2.711 0.626,5.122 1.878,7.233c1.253,2.111 2.983,3.756 5.192,4.934c2.209,1.177 4.702,1.766 7.48,1.766Z" style="fill-rule:nonzero;"/><path d="M552.086,282.303l-0,-34.8l3.415,0l0,34.8l-3.415,0Zm1.708,-43.267c-0.775,0 -1.435,-0.266 -1.982,-0.8c-0.546,-0.533 -0.819,-1.155 -0.819,-1.866c-0,-0.756 0.273,-1.4 0.819,-1.934c0.547,-0.533 1.207,-0.8 1.982,-0.8c0.819,0 1.491,0.256 2.015,0.767c0.523,0.511 0.785,1.144 0.785,1.9c0,0.756 -0.262,1.4 -0.785,1.933c-0.524,0.534 -1.196,0.8 -2.015,0.8Z" style="fill-rule:nonzero;"/><path d="M580.299,282.57c-3.143,-0 -5.545,-0.845 -7.207,-2.534c-1.663,-1.689 -2.494,-4 -2.494,-6.933l0,-33.2l3.416,0l-0,32.867c-0,2.222 0.569,3.933 1.708,5.133c1.138,1.2 2.778,1.8 4.918,1.8c2.232,0 4.076,-0.644 5.534,-1.933l1.434,2.333c-0.911,0.844 -2.015,1.467 -3.313,1.867c-1.298,0.4 -2.63,0.6 -3.996,0.6Zm-16.259,-32.2l0,-2.867l21.314,0l-0,2.867l-21.314,-0Z" style="fill-rule:nonzero;"/><path d="M619.578,282.303l0,-7.933l-0.136,-1.2l-0,-13.067c-0,-3.244 -0.9,-5.711 -2.699,-7.4c-1.799,-1.689 -4.429,-2.533 -7.89,-2.533c-2.459,-0 -4.747,0.411 -6.865,1.233c-2.118,0.822 -3.928,1.878 -5.431,3.167l-1.708,-2.4c1.776,-1.556 3.917,-2.767 6.422,-3.634c2.504,-0.866 5.123,-1.3 7.856,-1.3c4.417,0 7.81,1.089 10.178,3.267c2.368,2.178 3.552,5.422 3.552,9.733l0,22.067l-3.279,0Zm-12.842,0.267c-2.642,-0 -4.93,-0.411 -6.866,-1.234c-1.935,-0.822 -3.415,-1.989 -4.44,-3.5c-1.025,-1.511 -1.537,-3.244 -1.537,-5.2c-0,-1.777 0.421,-3.389 1.264,-4.833c0.842,-1.444 2.243,-2.622 4.201,-3.533c1.958,-0.911 4.577,-1.367 7.856,-1.367l13.116,0l-0,2.6l-13.048,0c-3.689,0 -6.273,0.667 -7.753,2c-1.48,1.333 -2.221,3 -2.221,5c0,2.222 0.866,4 2.596,5.333c1.731,1.334 4.167,2 7.31,2c3.006,0 5.544,-0.666 7.617,-2c2.072,-1.333 3.609,-3.266 4.611,-5.8l0.956,2.267c-0.956,2.533 -2.584,4.544 -4.884,6.033c-2.3,1.489 -5.226,2.234 -8.778,2.234Z" style="fill-rule:nonzero;"/><rect x="636.93" y="232.836" width="3.416" height="49.467" style="fill-rule:nonzero;"/><path d="M673.408,282.303l0,-46.667l18.923,0c5.055,0 9.495,1 13.321,3c3.825,2 6.797,4.756 8.915,8.267c2.117,3.511 3.176,7.533 3.176,12.067c0,4.533 -1.059,8.555 -3.176,12.066c-2.118,3.511 -5.09,6.267 -8.915,8.267c-3.826,2 -8.266,3 -13.321,3l-18.923,0Zm3.484,-3.067l15.166,0c4.508,0 8.425,-0.866 11.749,-2.6c3.325,-1.733 5.898,-4.122 7.72,-7.166c1.821,-3.045 2.732,-6.545 2.732,-10.5c0,-3.956 -0.911,-7.456 -2.732,-10.5c-1.822,-3.045 -4.395,-5.434 -7.72,-7.167c-3.324,-1.733 -7.241,-2.6 -11.749,-2.6l-15.166,0l0,40.533Z" style="fill-rule:nonzero;"/><path d="M743.224,282.57c-3.598,-0 -6.775,-0.756 -9.53,-2.267c-2.755,-1.511 -4.918,-3.6 -6.49,-6.267c-1.571,-2.666 -2.356,-5.711 -2.356,-9.133c-0,-3.467 0.74,-6.522 2.22,-9.167c1.48,-2.644 3.518,-4.722 6.114,-6.233c2.596,-1.511 5.51,-2.267 8.744,-2.267c3.233,0 6.137,0.734 8.71,2.2c2.573,1.467 4.599,3.523 6.079,6.167c1.481,2.644 2.221,5.7 2.221,9.167l-0.069,0.933l-31.492,0l0,-2.6l29.648,0l-1.366,1.267c0.045,-2.711 -0.536,-5.145 -1.742,-7.3c-1.207,-2.156 -2.835,-3.845 -4.885,-5.067c-2.049,-1.222 -4.417,-1.833 -7.104,-1.833c-2.642,-0 -4.998,0.611 -7.071,1.833c-2.072,1.222 -3.7,2.911 -4.884,5.067c-1.184,2.155 -1.776,4.611 -1.776,7.366l0,0.6c0,2.845 0.649,5.367 1.947,7.567c1.298,2.2 3.085,3.911 5.362,5.133c2.278,1.223 4.873,1.834 7.788,1.834c2.277,-0 4.406,-0.4 6.387,-1.2c1.981,-0.8 3.655,-2.023 5.021,-3.667l1.981,2.2c-1.548,1.867 -3.495,3.278 -5.84,4.233c-2.346,0.956 -4.885,1.434 -7.617,1.434Z" style="fill-rule:nonzero;"/><path d="M778.541,282.57c-2.96,-0 -5.727,-0.423 -8.3,-1.267c-2.573,-0.844 -4.565,-1.911 -5.977,-3.2l1.571,-2.667c1.366,1.156 3.188,2.145 5.465,2.967c2.277,0.822 4.736,1.233 7.378,1.233c3.734,0 6.421,-0.6 8.061,-1.8c1.639,-1.2 2.459,-2.777 2.459,-4.733c-0,-1.422 -0.421,-2.544 -1.264,-3.367c-0.842,-0.822 -1.97,-1.455 -3.381,-1.9c-1.412,-0.444 -2.96,-0.811 -4.646,-1.1c-1.685,-0.289 -3.37,-0.611 -5.055,-0.966c-1.685,-0.356 -3.233,-0.867 -4.645,-1.534c-1.412,-0.666 -2.539,-1.589 -3.381,-2.766c-0.843,-1.178 -1.264,-2.745 -1.264,-4.7c-0,-1.778 0.501,-3.378 1.503,-4.8c1.002,-1.423 2.505,-2.567 4.508,-3.434c2.004,-0.866 4.509,-1.3 7.515,-1.3c2.231,0 4.474,0.311 6.728,0.934c2.255,0.622 4.088,1.444 5.5,2.466l-1.572,2.667c-1.502,-1.111 -3.187,-1.911 -5.055,-2.4c-1.867,-0.489 -3.757,-0.733 -5.67,-0.733c-3.461,-0 -6,0.622 -7.616,1.866c-1.617,1.245 -2.426,2.8 -2.426,4.667c0,1.467 0.422,2.633 1.264,3.5c0.843,0.867 1.97,1.533 3.382,2c1.412,0.467 2.96,0.844 4.645,1.133c1.685,0.289 3.37,0.611 5.055,0.967c1.685,0.356 3.234,0.856 4.645,1.5c1.412,0.644 2.539,1.533 3.382,2.667c0.842,1.133 1.264,2.655 1.264,4.566c-0,1.911 -0.536,3.578 -1.606,5c-1.07,1.423 -2.653,2.534 -4.747,3.334c-2.095,0.8 -4.668,1.2 -7.72,1.2Z" style="fill-rule:nonzero;"/><path d="M802.177,282.303l0,-34.8l3.416,0l-0,34.8l-3.416,0Zm1.708,-43.267c-0.774,0 -1.434,-0.266 -1.981,-0.8c-0.546,-0.533 -0.82,-1.155 -0.82,-1.866c0,-0.756 0.274,-1.4 0.82,-1.934c0.547,-0.533 1.207,-0.8 1.981,-0.8c0.82,0 1.492,0.256 2.015,0.767c0.524,0.511 0.786,1.144 0.786,1.9c-0,0.756 -0.262,1.4 -0.786,1.933c-0.523,0.534 -1.195,0.8 -2.015,0.8Z" style="fill-rule:nonzero;"/><path d="M834.831,295.503c-3.234,0 -6.308,-0.489 -9.223,-1.467c-2.914,-0.977 -5.282,-2.333 -7.104,-4.066l1.844,-2.534c1.777,1.6 3.906,2.845 6.388,3.734c2.482,0.889 5.157,1.333 8.026,1.333c4.782,0 8.3,-1.089 10.555,-3.267c2.254,-2.177 3.381,-5.6 3.381,-10.266l0,-9.667l0.683,-5.2l-0.546,-5.2l-0,-11.4l3.279,0l-0,31.067c-0,5.822 -1.446,10.1 -4.338,12.833c-2.892,2.733 -7.207,4.1 -12.945,4.1Zm-0.957,-14.467c-3.37,0 -6.387,-0.722 -9.051,-2.166c-2.664,-1.445 -4.782,-3.445 -6.353,-6c-1.571,-2.556 -2.357,-5.478 -2.357,-8.767c0,-3.333 0.786,-6.267 2.357,-8.8c1.571,-2.533 3.689,-4.511 6.353,-5.933c2.664,-1.423 5.681,-2.134 9.051,-2.134c3.234,0 6.137,0.678 8.71,2.034c2.573,1.355 4.611,3.289 6.114,5.8c1.503,2.511 2.254,5.522 2.254,9.033c0,3.467 -0.751,6.467 -2.254,9c-1.503,2.533 -3.541,4.489 -6.114,5.867c-2.573,1.377 -5.476,2.066 -8.71,2.066Zm0.273,-3c2.87,0 5.397,-0.589 7.583,-1.766c2.186,-1.178 3.905,-2.823 5.158,-4.934c1.252,-2.111 1.878,-4.522 1.878,-7.233c0,-2.756 -0.626,-5.178 -1.878,-7.267c-1.253,-2.089 -2.972,-3.711 -5.158,-4.866c-2.186,-1.156 -4.713,-1.734 -7.583,-1.734c-2.778,0 -5.271,0.578 -7.48,1.734c-2.208,1.155 -3.939,2.777 -5.191,4.866c-1.253,2.089 -1.879,4.511 -1.879,7.267c-0,2.711 0.626,5.122 1.879,7.233c1.252,2.111 2.983,3.756 5.191,4.934c2.209,1.177 4.702,1.766 7.48,1.766Z" style="fill-rule:nonzero;"/><path d="M884.016,247.236c2.914,0 5.453,0.545 7.616,1.634c2.164,1.089 3.849,2.733 5.055,4.933c1.207,2.2 1.811,4.922 1.811,8.167l-0,20.333l-3.416,0l0,-20.067c0,-3.911 -1.013,-6.889 -3.04,-8.933c-2.026,-2.044 -4.861,-3.067 -8.505,-3.067c-2.778,0 -5.191,0.556 -7.241,1.667c-2.049,1.111 -3.609,2.667 -4.679,4.667c-1.07,2 -1.606,4.4 -1.606,7.2l0,18.533l-3.415,0l-0,-34.8l3.279,0l-0,9.667l-0.478,-1.067c1.093,-2.756 2.892,-4.922 5.396,-6.5c2.505,-1.578 5.579,-2.367 9.223,-2.367Z" style="fill-rule:nonzero;"/><path d="M942.013,282.636c-3.006,0 -5.682,-0.489 -8.027,-1.466c-2.345,-0.978 -4.19,-2.345 -5.533,-4.1c-1.344,-1.756 -2.015,-3.789 -2.015,-6.1c-0,-1.911 0.432,-3.678 1.297,-5.3c0.866,-1.623 2.289,-3.245 4.27,-4.867c1.981,-1.622 4.634,-3.344 7.958,-5.167c2.915,-1.644 5.215,-3.066 6.9,-4.266c1.685,-1.2 2.869,-2.356 3.552,-3.467c0.683,-1.111 1.025,-2.311 1.025,-3.6c-0,-1.911 -0.649,-3.444 -1.947,-4.6c-1.298,-1.156 -3.154,-1.733 -5.568,-1.733c-2.55,-0 -4.542,0.633 -5.977,1.9c-1.434,1.266 -2.152,2.944 -2.152,5.033c0,0.978 0.16,1.911 0.478,2.8c0.319,0.889 0.9,1.878 1.742,2.967c0.843,1.089 2.016,2.433 3.519,4.033l25.343,26.067l-2.049,2.2l-26.095,-26.8c-1.594,-1.645 -2.847,-3.089 -3.757,-4.334c-0.911,-1.244 -1.537,-2.411 -1.879,-3.5c-0.342,-1.089 -0.512,-2.233 -0.512,-3.433c-0,-1.911 0.466,-3.578 1.4,-5c0.934,-1.422 2.254,-2.533 3.962,-3.333c1.708,-0.8 3.7,-1.2 5.977,-1.2c2.141,-0 3.997,0.355 5.568,1.066c1.571,0.711 2.789,1.723 3.655,3.034c0.865,1.311 1.298,2.9 1.298,4.766c-0,1.645 -0.399,3.167 -1.196,4.567c-0.797,1.4 -2.129,2.8 -3.996,4.2c-1.867,1.4 -4.418,2.989 -7.651,4.767c-3.006,1.689 -5.374,3.222 -7.105,4.6c-1.73,1.377 -2.948,2.722 -3.654,4.033c-0.706,1.311 -1.059,2.744 -1.059,4.3c-0,1.822 0.524,3.422 1.571,4.8c1.047,1.378 2.493,2.444 4.338,3.2c1.844,0.756 3.996,1.133 6.455,1.133c3.279,0 6.194,-0.655 8.744,-1.966c2.551,-1.311 4.691,-3.3 6.422,-5.967c1.73,-2.667 2.983,-6.022 3.757,-10.067l2.801,0.867c-0.866,4.4 -2.3,8.078 -4.304,11.033c-2.004,2.956 -4.486,5.178 -7.446,6.667c-2.96,1.489 -6.33,2.233 -10.11,2.233Z" style="fill-rule:nonzero;"/><path d="M993.52,282.303l0,-46.667l19.947,0c5.147,0 9.177,1.023 12.092,3.067c2.914,2.044 4.372,5 4.372,8.867c-0,2.533 -0.615,4.666 -1.845,6.4c-1.229,1.733 -2.926,3.033 -5.089,3.9c-2.163,0.866 -4.588,1.3 -7.275,1.3l1.229,-1.334c3.279,0 6.08,0.467 8.403,1.4c2.322,0.934 4.087,2.289 5.294,4.067c1.207,1.778 1.81,4 1.81,6.667c0,3.911 -1.457,6.944 -4.372,9.1c-2.914,2.155 -7.332,3.233 -13.252,3.233l-21.314,0Zm3.484,-2.933l17.83,-0c4.599,-0 8.106,-0.767 10.52,-2.3c2.414,-1.534 3.62,-3.989 3.62,-7.367c0,-3.333 -1.206,-5.767 -3.62,-7.3c-2.414,-1.533 -5.921,-2.3 -10.52,-2.3l-18.24,0l0,-2.933l16.737,-0c4.144,-0 7.355,-0.778 9.632,-2.334c2.277,-1.555 3.416,-3.889 3.416,-7c-0,-3.066 -1.139,-5.377 -3.416,-6.933c-2.277,-1.556 -5.488,-2.333 -9.632,-2.333l-16.327,-0l0,40.8Z" style="fill-rule:nonzero;"/><rect x="1044.89" y="235.636" width="3.484" height="46.667" style="fill-rule:nonzero;"/><path d="M1065.04,282.303l0,-46.667l2.938,0l22.201,37.4l-1.571,0l22.133,-37.4l2.869,0l0.069,46.667l-3.416,0l-0.068,-41.533l0.956,-0l-20.972,35.333l-1.708,0l-21.04,-35.333l1.025,-0l-0,41.533l-3.416,0Z" style="fill-rule:nonzero;"/><path d="M1168.13,282.636c-3.553,0 -6.843,-0.589 -9.871,-1.766c-3.029,-1.178 -5.659,-2.834 -7.891,-4.967c-2.231,-2.133 -3.962,-4.633 -5.191,-7.5c-1.23,-2.867 -1.845,-6.011 -1.845,-9.433c0,-3.423 0.615,-6.567 1.845,-9.434c1.229,-2.866 2.971,-5.366 5.226,-7.5c2.254,-2.133 4.884,-3.789 7.89,-4.966c3.005,-1.178 6.284,-1.767 9.837,-1.767c3.37,0 6.524,0.533 9.461,1.6c2.937,1.067 5.454,2.689 7.548,4.867l-2.186,2.2c-2.049,-1.956 -4.315,-3.367 -6.797,-4.234c-2.482,-0.866 -5.112,-1.3 -7.89,-1.3c-3.051,0 -5.886,0.511 -8.505,1.534c-2.618,1.022 -4.895,2.466 -6.831,4.333c-1.935,1.867 -3.438,4.044 -4.508,6.533c-1.071,2.489 -1.606,5.2 -1.606,8.134c0,2.933 0.535,5.644 1.606,8.133c1.07,2.489 2.573,4.667 4.508,6.533c1.936,1.867 4.213,3.311 6.831,4.334c2.619,1.022 5.454,1.533 8.505,1.533c2.778,0 5.408,-0.433 7.89,-1.3c2.482,-0.867 4.748,-2.3 6.797,-4.3l2.186,2.2c-2.094,2.178 -4.611,3.811 -7.548,4.9c-2.937,1.089 -6.091,1.633 -9.461,1.633Z" style="fill-rule:nonzero;"/><path d="M1208.02,282.57c-3.416,-0 -6.455,-0.756 -9.12,-2.267c-2.664,-1.511 -4.781,-3.6 -6.353,-6.267c-1.571,-2.666 -2.356,-5.711 -2.356,-9.133c-0,-3.467 0.785,-6.522 2.356,-9.167c1.572,-2.644 3.689,-4.722 6.353,-6.233c2.665,-1.511 5.704,-2.267 9.12,-2.267c3.416,0 6.467,0.756 9.154,2.267c2.687,1.511 4.805,3.589 6.353,6.233c1.548,2.645 2.323,5.7 2.323,9.167c-0,3.422 -0.775,6.467 -2.323,9.133c-1.548,2.667 -3.666,4.756 -6.353,6.267c-2.687,1.511 -5.738,2.267 -9.154,2.267Zm0,-3c2.733,-0 5.192,-0.611 7.378,-1.834c2.186,-1.222 3.894,-2.944 5.123,-5.166c1.23,-2.223 1.845,-4.778 1.845,-7.667c-0,-2.933 -0.615,-5.5 -1.845,-7.7c-1.229,-2.2 -2.937,-3.911 -5.123,-5.133c-2.186,-1.223 -4.645,-1.834 -7.378,-1.834c-2.732,0 -5.18,0.611 -7.343,1.834c-2.164,1.222 -3.871,2.933 -5.124,5.133c-1.252,2.2 -1.878,4.767 -1.878,7.7c-0,2.889 0.626,5.444 1.878,7.667c1.253,2.222 2.96,3.944 5.124,5.166c2.163,1.223 4.611,1.834 7.343,1.834Z" style="fill-rule:nonzero;"/><path d="M1253.86,247.236c2.914,0 5.453,0.545 7.617,1.634c2.163,1.089 3.848,2.733 5.055,4.933c1.207,2.2 1.81,4.922 1.81,8.167l-0,20.333l-3.416,0l0,-20.067c0,-3.911 -1.013,-6.889 -3.04,-8.933c-2.026,-2.044 -4.861,-3.067 -8.504,-3.067c-2.779,0 -5.192,0.556 -7.242,1.667c-2.049,1.111 -3.609,2.667 -4.679,4.667c-1.07,2 -1.605,4.4 -1.605,7.2l-0,18.533l-3.416,0l0,-34.8l3.279,0l0,9.667l-0.478,-1.067c1.093,-2.756 2.892,-4.922 5.397,-6.5c2.504,-1.578 5.578,-2.367 9.222,-2.367Z" style="fill-rule:nonzero;"/><path d="M1291.43,282.57c-2.961,-0 -5.727,-0.423 -8.3,-1.267c-2.574,-0.844 -4.566,-1.911 -5.978,-3.2l1.571,-2.667c1.367,1.156 3.188,2.145 5.465,2.967c2.277,0.822 4.737,1.233 7.378,1.233c3.735,0 6.422,-0.6 8.061,-1.8c1.64,-1.2 2.459,-2.777 2.459,-4.733c0,-1.422 -0.421,-2.544 -1.264,-3.367c-0.842,-0.822 -1.969,-1.455 -3.381,-1.9c-1.412,-0.444 -2.96,-0.811 -4.645,-1.1c-1.685,-0.289 -3.37,-0.611 -5.055,-0.966c-1.685,-0.356 -3.234,-0.867 -4.646,-1.534c-1.411,-0.666 -2.539,-1.589 -3.381,-2.766c-0.843,-1.178 -1.264,-2.745 -1.264,-4.7c0,-1.778 0.501,-3.378 1.503,-4.8c1.002,-1.423 2.505,-2.567 4.509,-3.434c2.003,-0.866 4.508,-1.3 7.514,-1.3c2.232,0 4.474,0.311 6.729,0.934c2.254,0.622 4.087,1.444 5.499,2.466l-1.571,2.667c-1.503,-1.111 -3.188,-1.911 -5.055,-2.4c-1.868,-0.489 -3.758,-0.733 -5.67,-0.733c-3.461,-0 -6,0.622 -7.617,1.866c-1.617,1.245 -2.425,2.8 -2.425,4.667c-0,1.467 0.421,2.633 1.264,3.5c0.842,0.867 1.969,1.533 3.381,2c1.412,0.467 2.96,0.844 4.645,1.133c1.685,0.289 3.37,0.611 5.055,0.967c1.685,0.356 3.234,0.856 4.646,1.5c1.411,0.644 2.539,1.533 3.381,2.667c0.843,1.133 1.264,2.655 1.264,4.566c-0,1.911 -0.535,3.578 -1.605,5c-1.071,1.423 -2.653,2.534 -4.748,3.334c-2.095,0.8 -4.668,1.2 -7.719,1.2Z" style="fill-rule:nonzero;"/><path d="M1329.55,282.57c-3.051,-0 -5.693,-0.545 -7.924,-1.634c-2.232,-1.089 -3.951,-2.733 -5.158,-4.933c-1.207,-2.2 -1.81,-4.922 -1.81,-8.167l-0,-20.333l3.415,0l0,20.067c0,3.911 1.025,6.889 3.074,8.933c2.05,2.044 4.942,3.067 8.676,3.067c2.687,-0 5.01,-0.556 6.968,-1.667c1.958,-1.111 3.461,-2.678 4.509,-4.7c1.047,-2.022 1.571,-4.411 1.571,-7.167l-0,-18.533l3.415,0l0,34.8l-3.279,0l0,-9.667l0.479,1.134c-1.048,2.711 -2.79,4.855 -5.226,6.433c-2.437,1.578 -5.34,2.367 -8.71,2.367Z" style="fill-rule:nonzero;"/><rect x="1360.77" y="232.836" width="3.416" height="49.467" style="fill-rule:nonzero;"/><path d="M1388.5,282.57c-3.142,-0 -5.544,-0.845 -7.207,-2.534c-1.662,-1.689 -2.493,-4 -2.493,-6.933l0,-33.2l3.416,0l-0,32.867c-0,2.222 0.569,3.933 1.707,5.133c1.139,1.2 2.779,1.8 4.919,1.8c2.232,0 4.076,-0.644 5.533,-1.933l1.435,2.333c-0.911,0.844 -2.015,1.467 -3.313,1.867c-1.298,0.4 -2.63,0.6 -3.997,0.6Zm-16.258,-32.2l0,-2.867l21.314,0l-0,2.867l-21.314,-0Z" style="fill-rule:nonzero;"/><path d="M1427.78,282.303l0,-7.933l-0.137,-1.2l0,-13.067c0,-3.244 -0.899,-5.711 -2.698,-7.4c-1.799,-1.689 -4.429,-2.533 -7.89,-2.533c-2.459,-0 -4.748,0.411 -6.865,1.233c-2.118,0.822 -3.928,1.878 -5.431,3.167l-1.708,-2.4c1.776,-1.556 3.917,-2.767 6.421,-3.634c2.505,-0.866 5.124,-1.3 7.856,-1.3c4.418,0 7.811,1.089 10.179,3.267c2.368,2.178 3.552,5.422 3.552,9.733l0,22.067l-3.279,0Zm-12.843,0.267c-2.641,-0 -4.93,-0.411 -6.865,-1.234c-1.936,-0.822 -3.416,-1.989 -4.44,-3.5c-1.025,-1.511 -1.537,-3.244 -1.537,-5.2c-0,-1.777 0.421,-3.389 1.263,-4.833c0.843,-1.444 2.243,-2.622 4.202,-3.533c1.958,-0.911 4.576,-1.367 7.855,-1.367l13.116,0l0,2.6l-13.047,0c-3.689,0 -6.274,0.667 -7.754,2c-1.48,1.333 -2.22,3 -2.22,5c0,2.222 0.865,4 2.596,5.333c1.731,1.334 4.167,2 7.309,2c3.006,0 5.545,-0.666 7.617,-2c2.072,-1.333 3.609,-3.266 4.611,-5.8l0.957,2.267c-0.957,2.533 -2.585,4.544 -4.885,6.033c-2.299,1.489 -5.225,2.234 -8.778,2.234Z" style="fill-rule:nonzero;"/><path d="M1462.55,247.236c2.915,0 5.454,0.545 7.617,1.634c2.163,1.089 3.848,2.733 5.055,4.933c1.207,2.2 1.81,4.922 1.81,8.167l0,20.333l-3.415,0l-0,-20.067c-0,-3.911 -1.014,-6.889 -3.04,-8.933c-2.027,-2.044 -4.862,-3.067 -8.505,-3.067c-2.778,0 -5.192,0.556 -7.241,1.667c-2.05,1.111 -3.609,2.667 -4.68,4.667c-1.07,2 -1.605,4.4 -1.605,7.2l-0,18.533l-3.416,0l0,-34.8l3.279,0l0,9.667l-0.478,-1.067c1.093,-2.756 2.892,-4.922 5.397,-6.5c2.505,-1.578 5.579,-2.367 9.222,-2.367Z" style="fill-rule:nonzero;"/><path d="M1505.25,282.57c-3.461,-0 -6.546,-0.756 -9.256,-2.267c-2.71,-1.511 -4.85,-3.6 -6.421,-6.267c-1.572,-2.666 -2.357,-5.711 -2.357,-9.133c-0,-3.467 0.785,-6.533 2.357,-9.2c1.571,-2.667 3.711,-4.744 6.421,-6.233c2.71,-1.489 5.795,-2.234 9.256,-2.234c2.869,0 5.477,0.534 7.822,1.6c2.345,1.067 4.247,2.667 5.704,4.8l-2.527,1.8c-1.276,-1.777 -2.87,-3.089 -4.782,-3.933c-1.913,-0.844 -3.985,-1.267 -6.217,-1.267c-2.778,0 -5.271,0.611 -7.48,1.834c-2.209,1.222 -3.939,2.933 -5.192,5.133c-1.252,2.2 -1.878,4.767 -1.878,7.7c-0,2.933 0.626,5.5 1.878,7.7c1.253,2.2 2.983,3.911 5.192,5.133c2.209,1.223 4.702,1.834 7.48,1.834c2.232,-0 4.304,-0.423 6.217,-1.267c1.912,-0.844 3.506,-2.156 4.782,-3.933l2.527,1.8c-1.457,2.133 -3.359,3.733 -5.704,4.8c-2.345,1.066 -4.953,1.6 -7.822,1.6Z" style="fill-rule:nonzero;"/><path d="M1527.59,295.503c-1.639,0 -3.176,-0.267 -4.611,-0.8c-1.434,-0.533 -2.652,-1.311 -3.654,-2.333l1.707,-2.534c0.911,0.934 1.902,1.623 2.972,2.067c1.07,0.444 2.288,0.667 3.655,0.667c1.639,-0 3.085,-0.445 4.338,-1.334c1.252,-0.889 2.425,-2.511 3.518,-4.866l2.459,-5.334l0.478,-0.6l15.097,-32.933l3.484,0l-18.308,39.533c-0.956,2.134 -1.992,3.811 -3.108,5.034c-1.116,1.222 -2.334,2.1 -3.655,2.633c-1.32,0.533 -2.778,0.8 -4.372,0.8Zm10.316,-12.333l-16.532,-35.667l3.621,0l15.028,32.733l-2.117,2.934Z" style="fill-rule:nonzero;"/><clipPath id="_clip1"><rect id="Short-Logo_v20" serif:id="Short Logo_v20" x="25.526" y="20.113" width="360" height="360"/></clipPath><g clip-path="url(#_clip1)"><g><path d="M105.093,349.54l0.685,-57.756l51.551,-27.994c-31.205,-23.63 -40.909,-67.172 -21.897,-101.948l-27.814,-51.191l-57.973,-0.685c-47.474,82.071 -22.727,187.085 55.448,239.574Z" style="fill:#f5be51;fill-rule:nonzero;"/><path d="M116.096,297.989l-0.686,57.972c82.071,47.439 187.085,22.692 239.538,-55.447l-57.756,-0.685l-27.994,-51.552c-23.593,31.169 -67.136,40.874 -101.912,21.898l-51.19,27.814Z" style="fill:#139ec5;fill-rule:nonzero;"/><path d="M361.442,290.161c47.439,-82.071 22.691,-187.085 -55.448,-239.538l-0.685,57.756l-51.551,27.994c31.168,23.629 40.873,67.171 21.861,101.948l27.814,51.19l58.009,0.65Z" style="fill:#f5be51;fill-rule:nonzero;"/><path d="M294.956,102.174l0.685,-57.973c-82.071,-47.439 -187.085,-22.691 -239.539,55.448l57.757,0.685l27.994,51.551c23.593,-31.205 67.135,-40.909 101.912,-21.897l51.191,-27.814Z" style="fill:#139ec5;fill-rule:nonzero;"/><rect x="191.795" y="34.344" width="13.548" height="66.897" style="fill:#fff;fill-rule:nonzero;"/><path d="M316.352,231.496l0.093,-52.696l13.081,52.696l12.987,-0l13.267,-52.696l-0,52.696l12.52,-0l-0,-66.897l-20.368,-0l-11.773,45.595l-12.052,-45.595l-20.275,-0l-0,66.897l12.52,-0Z" style="fill:#fff;fill-rule:nonzero;"/><path d="M184.171,364.636l25.32,0c5.045,0 8.969,-0.467 11.959,-1.401c4.018,-1.308 7.195,-3.083 9.53,-5.326c3.083,-3.083 5.419,-7.007 7.101,-11.865c1.402,-3.925 2.056,-8.689 2.056,-14.202c-0,-6.26 -0.748,-11.586 -2.149,-15.79c-1.495,-4.298 -3.644,-7.942 -6.447,-10.838c-2.803,-2.99 -6.073,-5.046 -9.997,-6.167c-2.99,-0.841 -7.195,-1.308 -12.707,-1.308l-24.666,0l-0,66.897Zm19.621,-55.591c5.419,-0 9.156,0.186 11.025,0.654c2.522,0.56 4.578,1.588 6.259,3.176c1.589,1.495 2.897,3.644 3.738,6.447c0.934,2.71 1.401,6.727 1.401,11.866c0,5.232 -0.467,9.249 -1.401,12.239c-0.841,2.99 -2.056,5.139 -3.457,6.447c-1.495,1.308 -3.27,2.242 -5.419,2.803c-1.682,0.467 -4.392,0.654 -8.129,0.654l-10.09,0l-0,-44.286l6.073,-0Z" style="fill:#fff;fill-rule:nonzero;"/><path d="M101.343,235.618l0,-11.305l-37.279,-0l0,-18.126l33.449,0l-0,-11.305l-33.449,-0l0,-14.856l35.971,0l0,-11.305l-49.518,-0l-0,66.897l50.826,-0Z" style="fill:#fff;fill-rule:nonzero;"/></g></g></svg>